<?xml version="1.0" standalone="no"?>
<!DOCTYPE svg PUBLIC "-//W3C//DTD SVG 20010904//EN"
 "http://www.w3.org/TR/2001/REC-SVG-20010904/DTD/svg10.dtd">
<svg version="1.0" xmlns="http://www.w3.org/2000/svg"
 width="512.000000pt" height="512.000000pt" viewBox="0 0 512.000000 512.000000"
 preserveAspectRatio="xMidYMid meet">

<g transform="translate(0.000000,512.000000) scale(0.100000,-0.100000)"
fill="#000000" stroke="none">
<path d="M1142 4778 c-7 -7 -12 -17 -12 -23 0 -7 -30 -119 -66 -251 -156 -570
-220 -886 -271 -1349 -25 -227 -25 -769 0 -980 62 -519 200 -1138 373 -1668
42 -127 47 -137 70 -137 13 0 27 6 30 14 3 8 -15 79 -40 158 -45 145 -138 467
-150 524 -6 29 -3 33 51 71 178 124 314 150 447 83 32 -17 64 -30 71 -30 6 0
30 18 53 39 62 59 138 85 247 85 93 1 100 -1 196 -61 26 -16 29 -15 111 26 66
33 97 43 139 45 48 1 54 -1 53 -19 -1 -11 -35 -184 -77 -385 -104 -500 -115
-569 -97 -580 18 -12 22 -12 37 -2 7 4 51 197 98 427 47 231 91 444 97 474 10
47 15 55 45 68 50 20 181 28 241 13 66 -15 126 -59 152 -110 12 -23 28 -44 36
-47 8 -3 40 2 70 12 40 13 76 16 128 13 110 -7 181 -53 223 -143 l18 -40 178
-3 c97 -1 177 -6 177 -11 0 -15 -134 -310 -205 -452 -71 -141 -76 -173 -27
-167 24 3 36 22 114 188 383 809 621 1533 684 2075 24 206 15 447 -24 675 -72
417 -195 796 -377 1165 -110 223 -158 297 -188 293 -12 -2 -23 -10 -25 -19 -2
-10 29 -73 68 -142 69 -122 159 -311 214 -451 l28 -69 -24 -18 c-36 -28 -457
-240 -613 -309 -397 -176 -752 -287 -1028 -321 -232 -28 -618 6 -915 80 -184
46 -480 146 -505 170 -15 15 65 366 178 776 34 127 66 245 70 263 10 49 -23
80 -53 50z m2932 -809 c51 -126 138 -471 177 -699 30 -180 37 -472 14 -650
-39 -315 -144 -723 -281 -1093 -24 -67 -47 -128 -49 -135 -3 -9 -23 6 -56 42
-70 77 -132 100 -251 93 l-86 -6 -12 30 c-18 43 -94 105 -153 126 -55 18 -173
24 -242 10 -38 -7 -41 -6 -64 28 -28 42 -100 91 -155 107 -49 13 -162 16 -232
5 l-52 -7 34 137 c18 76 49 194 69 263 19 69 47 170 61 225 83 331 279 753
495 1070 112 165 134 184 296 260 78 37 213 104 300 150 87 46 161 84 164 84
4 1 14 -17 23 -40z m-2753 -484 c90 -26 172 -51 181 -56 10 -5 29 -9 42 -9 14
0 28 -4 31 -10 3 -5 0 -10 -7 -10 -47 -1 -40 -18 87 -211 304 -463 551 -775
703 -890 31 -24 60 -48 65 -54 21 -29 58 -219 82 -426 l6 -56 -58 29 c-82 40
-166 53 -249 39 -61 -11 -175 -59 -188 -79 -3 -5 -37 7 -76 27 -64 31 -80 35
-153 35 -98 0 -191 -28 -268 -81 l-51 -35 -51 24 c-43 19 -68 23 -152 23 -111
-1 -175 -18 -266 -75 -28 -17 -52 -30 -54 -28 -5 5 -64 378 -82 518 -25 193
-25 801 0 1015 20 172 57 427 63 436 2 4 55 -13 117 -37 63 -24 188 -64 278
-89z m1901 53 c-184 -273 -401 -734 -472 -1004 -39 -148 -68 -199 -123 -225
-54 -24 -84 -24 -152 2 -94 35 -243 188 -450 464 -110 147 -430 623 -424 630
3 2 63 -5 134 -16 380 -56 670 -42 1028 51 129 34 347 107 440 149 34 16 64
27 65 25 2 -1 -19 -35 -46 -76z m-562 -1316 c0 -5 -20 -86 -44 -180 -41 -163
-56 -197 -56 -128 0 31 -34 241 -46 283 -6 21 -2 22 52 26 33 2 67 4 77 5 9 1
17 -2 17 -6z m-246 -486 c29 -14 64 -38 78 -53 l27 -28 -25 -115 c-14 -63 -27
-122 -29 -130 -4 -11 -22 -15 -71 -16 -55 -1 -78 -8 -143 -40 l-78 -39 -68 35
c-62 32 -75 35 -154 35 -106 0 -177 -21 -258 -74 l-59 -40 -63 25 c-128 52
-269 30 -429 -67 -46 -28 -85 -49 -86 -47 -1 1 -11 41 -21 87 l-19 83 25 19
c97 76 241 104 398 78 64 -11 69 -10 107 13 131 83 274 95 420 37 51 -20 52
-20 90 -1 61 30 131 43 211 40 80 -2 106 9 87 39 -25 40 -168 42 -281 3 l-61
-21 -69 21 c-77 24 -192 28 -270 9 -26 -6 -80 -26 -119 -45 -67 -32 -74 -33
-130 -24 -125 21 -246 2 -356 -54 l-68 -34 -10 37 c-24 92 -24 97 8 120 17 12
61 36 99 54 62 29 77 32 164 32 88 0 100 -2 158 -33 l62 -33 49 44 c121 109
307 125 428 37 48 -34 55 -36 72 -14 21 24 99 67 149 81 67 19 173 9 235 -21z
m523 3 c28 -15 61 -43 80 -70 60 -83 59 -82 96 -63 47 25 162 30 228 10 69
-21 102 -49 138 -117 25 -49 31 -54 57 -51 16 2 70 4 120 5 83 2 94 0 132 -26
41 -26 82 -80 96 -123 4 -13 -2 -40 -14 -69 l-20 -48 -30 41 c-20 27 -50 51
-96 73 -56 28 -80 34 -156 37 l-89 4 -58 59 c-76 76 -132 94 -274 87 l-100 -5
-34 38 c-49 54 -109 74 -214 72 -99 -1 -132 -14 -127 -46 3 -21 8 -22 113 -22
128 0 163 -14 200 -80 17 -32 27 -39 46 -37 13 2 70 5 126 9 93 5 106 3 156
-20 48 -22 97 -69 97 -95 0 -26 34 -36 118 -33 135 4 222 -37 264 -124 36 -73
32 -75 -160 -75 l-169 0 -30 48 c-54 86 -130 128 -254 139 -39 3 -87 1 -117
-7 l-52 -12 -50 56 c-80 87 -204 121 -349 97 -36 -6 -66 -9 -68 -8 -1 2 14 81
34 176 29 133 41 175 56 182 67 36 232 35 304 -2z"/>
<path d="M2216 4395 c-9 -24 2 -40 43 -63 65 -37 154 -22 181 29 21 38 -32 68
-60 34 -16 -19 -70 -19 -96 0 -25 19 -60 19 -68 0z"/>
</g>
</svg>
