<?xml version="1.0" standalone="no"?>
<!DOCTYPE svg PUBLIC "-//W3C//DTD SVG 20010904//EN"
 "http://www.w3.org/TR/2001/REC-SVG-20010904/DTD/svg10.dtd">
<svg version="1.0" xmlns="http://www.w3.org/2000/svg"
 width="256.000000pt" height="256.000000pt" viewBox="0 0 256.000000 256.000000"
 preserveAspectRatio="xMidYMid meet">

<g transform="translate(0.000000,256.000000) scale(0.100000,-0.100000)"
fill="#000000" stroke="none">
<path d="M555 2333 c-49 -166 -116 -454 -134 -573 -62 -409 -43 -725 69 -1175
46 -180 107 -385 121 -399 24 -26 15 36 -26 178 -25 86 -45 165 -45 174 0 31
118 92 179 92 15 0 44 -9 66 -20 39 -20 39 -20 60 0 54 51 143 63 204 29 l38
-21 39 21 c44 24 94 28 94 8 0 -7 -20 -111 -45 -230 -50 -242 -51 -247 -31
-247 9 0 18 18 24 48 6 26 27 132 49 235 43 212 41 208 128 208 62 0 105 -19
125 -56 12 -22 18 -25 44 -18 46 12 115 6 142 -12 13 -8 30 -28 39 -45 15 -29
17 -29 104 -32 l89 -3 -69 -149 c-62 -136 -75 -177 -48 -160 26 15 166 329
245 546 58 160 124 400 145 528 44 274 -29 640 -193 973 -60 121 -88 160 -103
145 -2 -2 27 -67 65 -143 39 -77 73 -154 76 -171 l6 -31 -164 -81 c-383 -189
-636 -256 -876 -232 -53 6 -134 17 -180 25 -79 15 -282 76 -311 94 -16 10 5
114 74 369 25 89 45 167 45 172 0 6 -6 10 -14 10 -9 0 -21 -22 -31 -57z m1505
-420 c115 -375 106 -628 -42 -1071 l-51 -153 -31 31 c-37 35 -89 53 -128 44
-23 -4 -33 1 -59 30 -36 42 -94 61 -156 52 -37 -5 -45 -2 -71 23 -35 36 -102
55 -159 47 -31 -4 -43 -2 -43 7 0 11 12 56 85 327 42 152 145 369 243 510 l57
82 160 83 c88 45 161 83 162 84 1 0 16 -43 33 -96z m-1435 -158 c184 -60 309
-79 490 -72 155 6 309 39 443 95 40 16 72 28 72 26 0 -3 -25 -46 -56 -97 -79
-131 -140 -264 -186 -402 -22 -66 -47 -128 -55 -137 -20 -22 -74 -23 -112 -4
-59 31 -217 223 -373 456 -12 19 -19 22 -28 13 -10 -9 2 -33 55 -110 123 -177
178 -247 263 -332 l84 -84 14 -76 c7 -42 13 -91 14 -110 0 -28 -3 -32 -17 -26
-75 31 -144 29 -198 -4 -28 -17 -32 -17 -60 -3 -50 26 -132 21 -194 -10 -42
-22 -57 -26 -73 -17 -37 20 -122 13 -182 -14 -31 -14 -56 -24 -56 -22 0 3 -10
62 -22 132 -36 207 -32 593 9 821 3 19 10 31 17 28 6 -3 74 -25 151 -51z m681
-741 c-16 -57 -25 -78 -25 -59 -1 17 -7 58 -14 92 l-13 62 35 3 c20 2 37 0 39
-3 1 -3 -9 -46 -22 -95z m-330 -168 c23 -16 26 -16 56 6 41 29 132 37 175 15
45 -24 54 -38 44 -78 -5 -19 -12 -46 -15 -61 -5 -22 -12 -28 -32 -28 -14 0
-47 -9 -73 -20 -43 -19 -49 -20 -77 -5 -57 29 -202 8 -228 -34 -5 -8 -16 -6
-36 4 -51 26 -120 19 -195 -20 -72 -37 -76 -36 -79 26 -1 27 5 36 34 53 28 17
53 21 125 22 64 0 99 5 122 17 52 27 117 32 166 13 40 -15 47 -15 80 -1 20 8
59 15 88 15 36 0 49 4 46 13 -2 8 -25 11 -73 10 -72 -2 -93 -2 -209 0 -49 1
-82 -4 -110 -17 -29 -13 -61 -18 -112 -16 -54 1 -84 -4 -119 -20 -53 -23 -66
-16 -62 30 2 18 15 31 48 48 53 26 116 29 164 5 32 -15 37 -15 53 -1 65 56
154 66 219 24z m526 -6 c37 -40 39 -41 78 -30 54 15 111 -1 144 -41 14 -17 26
-34 26 -39 0 -5 24 -6 53 -3 87 9 149 -39 133 -102 l-7 -28 -22 21 c-31 29
-90 52 -134 52 -27 0 -42 6 -50 20 -22 34 -73 53 -140 53 -52 0 -65 3 -84 23
-35 38 -159 45 -159 8 0 -10 15 -14 60 -14 47 0 64 -4 80 -20 11 -11 20 -23
20 -27 0 -5 36 -8 81 -8 l81 0 32 -39 c26 -30 38 -37 54 -32 56 18 152 -32
152 -80 0 -23 -2 -24 -85 -24 -84 0 -85 0 -100 31 -23 44 -93 73 -161 66 -48
-5 -54 -3 -80 24 -34 36 -93 53 -157 46 -45 -6 -47 -5 -42 16 3 12 12 51 19
86 8 35 21 68 28 72 7 5 42 9 77 9 62 0 65 -1 103 -40z"/>
<path d="M1115 2200 c-17 -27 36 -52 77 -38 26 9 36 27 22 41 -3 3 -14 1 -24
-6 -14 -8 -25 -8 -44 1 -16 7 -28 8 -31 2z"/>
</g>
</svg>
