<?xml version="1.0" standalone="no"?>
<!DOCTYPE svg PUBLIC "-//W3C//DTD SVG 20010904//EN"
 "http://www.w3.org/TR/2001/REC-SVG-20010904/DTD/svg10.dtd">
<svg version="1.0" xmlns="http://www.w3.org/2000/svg"
 width="128.000000pt" height="128.000000pt" viewBox="0 0 128.000000 128.000000"
 preserveAspectRatio="xMidYMid meet">

<g transform="translate(0.000000,128.000000) scale(0.100000,-0.100000)"
fill="#000000" stroke="none">
<path d="M558 1149 c-35 -29 -93 -81 -130 -118 -74 -72 -84 -102 -50 -152 9
-14 39 -58 65 -98 27 -40 51 -70 54 -68 7 8 -21 57 -70 122 -56 75 -63 99 -43
130 19 29 196 185 210 185 15 0 66 -52 66 -67 0 -8 -23 -49 -51 -91 -57 -84
-76 -107 -66 -79 8 23 -12 22 -40 -2 -28 -24 -30 -35 -3 -21 25 13 43 4 36
-18 -3 -10 -10 -93 -15 -187 -11 -185 -17 -223 -64 -394 -27 -99 -35 -116 -64
-138 -38 -29 -42 -48 -14 -63 48 -25 115 3 138 58 8 20 29 52 46 69 30 32 31
33 18 82 -12 48 -12 51 33 154 50 113 66 197 58 290 l-5 58 54 47 c94 82 199
193 199 213 0 10 -21 33 -47 53 -27 19 -59 44 -72 56 -30 25 -43 25 -66 0 -15
-17 -21 -18 -34 -7 -14 12 -66 37 -76 37 -2 0 -32 -23 -67 -51z m112 16 c17
-9 30 -21 30 -27 0 -9 -3 -9 -12 0 -7 7 -19 12 -27 12 -13 -1 -13 -2 2 -11 9
-5 17 -17 17 -26 0 -12 -9 -8 -35 17 -48 46 -34 66 25 35z m117 -7 c4 -7 17
-19 28 -26 11 -7 34 -22 52 -33 17 -11 34 -26 37 -34 10 -28 -11 -24 -45 8
-44 42 -87 69 -102 64 -7 -2 6 -15 28 -30 62 -40 101 -74 93 -83 -4 -4 -18 1
-30 10 -13 9 -46 32 -75 52 -51 35 -52 37 -36 60 17 26 38 31 50 12z m-2 -103
c33 -25 61 -49 63 -53 2 -8 -18 -28 -151 -149 l-46 -42 0 -99 c0 -105 -11
-148 -76 -301 -18 -43 -25 -72 -20 -90 3 -14 9 -36 12 -49 4 -17 0 -28 -16
-38 -12 -9 -33 -38 -47 -65 -27 -55 -58 -75 -100 -65 l-28 7 31 24 c38 30 44
46 88 218 32 127 55 325 55 484 0 23 21 64 77 147 42 64 82 116 87 116 6 0 38
-20 71 -45z"/>
<path d="M676 551 c-3 -5 8 -14 24 -20 35 -12 36 -16 14 -60 -13 -26 -14 -38
-5 -57 14 -32 14 -57 -1 -89 -16 -36 -28 -31 -28 11 0 40 -27 94 -47 94 -9 0
-7 -10 7 -32 11 -18 20 -44 20 -58 1 -82 39 -96 66 -24 14 38 16 53 7 87 -9
33 -8 47 3 69 21 40 17 56 -16 73 -34 18 -37 18 -44 6z"/>
</g>
</svg>
