<?xml version="1.0" standalone="no"?>
<!DOCTYPE svg PUBLIC "-//W3C//DTD SVG 20010904//EN"
 "http://www.w3.org/TR/2001/REC-SVG-20010904/DTD/svg10.dtd">
<svg version="1.0" xmlns="http://www.w3.org/2000/svg"
 width="128.000000pt" height="128.000000pt" viewBox="0 0 128.000000 128.000000"
 preserveAspectRatio="xMidYMid meet">

<g transform="translate(0.000000,128.000000) scale(0.100000,-0.100000)"
fill="#000000" stroke="none">
<path d="M286 1192 c-9 -15 -64 -242 -77 -322 -18 -106 -16 -306 4 -425 9 -55
33 -155 52 -223 19 -68 35 -126 35 -128 0 -3 4 -3 9 0 5 3 -2 41 -15 83 -13
43 -24 84 -24 90 0 23 60 46 104 40 27 -4 47 -1 60 9 23 16 77 19 92 4 6 -6
21 -6 42 2 17 7 34 9 38 6 3 -4 -3 -51 -15 -105 -20 -94 -27 -152 -16 -141 3
2 14 49 25 104 32 157 25 144 70 144 27 0 46 -6 57 -19 12 -14 24 -18 49 -14
26 4 38 0 59 -21 19 -19 36 -26 65 -26 22 0 40 -2 40 -5 0 -3 -14 -35 -30 -72
-46 -101 -30 -99 19 3 58 121 137 361 152 462 13 95 2 193 -36 321 -25 86 -92
231 -106 231 -12 0 -11 -7 5 -33 8 -12 26 -48 40 -79 l26 -58 -88 -44 c-201
-101 -343 -131 -497 -107 -114 19 -179 43 -183 69 -2 12 11 74 28 138 27 104
33 143 16 116z m754 -274 c28 -105 36 -216 21 -303 -11 -60 -67 -253 -77 -264
-2 -2 -12 3 -22 12 -10 10 -31 17 -45 17 -15 0 -36 9 -47 20 -12 12 -33 20
-55 20 -21 0 -48 9 -65 21 -19 15 -38 20 -59 17 -37 -5 -37 -2 -12 83 10 35
22 78 26 94 10 44 78 186 115 239 24 36 49 55 108 86 42 21 80 39 83 40 4 0
17 -37 29 -82z m-719 -45 c65 -23 90 -26 204 -27 116 -1 138 2 205 26 41 14
76 25 78 23 2 -2 -9 -22 -23 -46 -34 -53 -81 -157 -95 -209 -30 -110 -82 -88
-206 87 -37 52 -69 91 -72 88 -8 -8 82 -137 142 -202 46 -50 58 -70 66 -113 6
-29 10 -54 10 -55 0 -2 -16 2 -35 8 -25 7 -42 7 -59 -1 -15 -6 -46 -9 -75 -5
-37 4 -57 1 -74 -10 -15 -10 -29 -12 -38 -6 -20 13 -50 11 -81 -5 -15 -8 -30
-11 -32 -7 -15 24 -28 201 -23 311 6 125 13 170 26 170 4 0 41 -12 82 -27z
m335 -360 l-10 -47 -9 38 c-7 29 -6 40 4 47 24 15 26 10 15 -38z m-156 -83 c8
0 33 2 55 6 52 7 75 -10 68 -51 -4 -25 -12 -33 -43 -43 -27 -8 -47 -9 -68 -1
-23 8 -38 7 -65 -5 -21 -8 -51 -12 -75 -9 -25 3 -50 0 -70 -11 -40 -21 -42
-20 -42 8 0 34 24 40 200 51 84 5 119 10 126 18 15 15 -298 -10 -324 -27 -5
-3 -12 1 -16 9 -9 25 38 48 87 42 28 -4 51 -1 67 9 15 8 37 12 55 9 17 -3 37
-6 45 -5z m253 -10 c11 -15 21 -19 44 -14 23 4 36 0 60 -20 19 -16 37 -24 47
-20 20 8 66 -21 66 -42 0 -12 -5 -14 -17 -9 -10 4 -31 10 -48 13 -16 3 -41 13
-54 23 -13 11 -38 19 -55 19 -17 0 -40 7 -50 15 -22 17 -76 20 -76 5 0 -5 13
-10 28 -10 15 0 33 -5 40 -12 7 -7 31 -13 53 -13 26 -1 46 -7 54 -18 7 -9 23
-17 36 -17 26 0 69 -25 69 -41 0 -5 -19 -9 -43 -9 -30 0 -48 6 -60 20 -11 13
-29 20 -54 20 -20 0 -44 7 -54 16 -10 9 -36 18 -58 21 -41 6 -41 6 -35 42 9
50 10 51 54 51 28 0 43 -6 53 -20z"/>
<path d="M555 1089 c8 -11 42 -12 49 -1 3 5 -8 9 -25 10 -16 0 -27 -4 -24 -9z"/>
</g>
</svg>
